<mxfile host="app.diagrams.net" agent="Mozilla/5.0 (Windows NT 10.0; Win64; x64) AppleWebKit/537.36 (KHTML, like Gecko) Chrome/136.0.0.0 Safari/537.36 Edg/136.0.0.0" version="27.0.6" pages="4">
  <diagram name="第 1 页" id="71NycueOOX-s2MwRu-JP">
    <mxGraphModel dx="445" dy="-128" grid="0" gridSize="10" guides="1" tooltips="1" connect="1" arrows="1" fold="1" page="0" pageScale="1" pageWidth="827" pageHeight="1169" math="0" shadow="0">
      <root>
        <mxCell id="0" />
        <mxCell id="1" parent="0" />
        <mxCell id="-tVbdQUFw9orbpe_zKfA-1" value="&lt;font style=&quot;font-size: 9px;&quot;&gt;普通用户&lt;/font&gt;" style="shape=umlActor;verticalLabelPosition=bottom;verticalAlign=top;html=1;outlineConnect=0;" vertex="1" parent="1">
          <mxGeometry x="347" y="433" width="26" height="44" as="geometry" />
        </mxCell>
        <mxCell id="-tVbdQUFw9orbpe_zKfA-7" value="登录/注册" style="rounded=0;whiteSpace=wrap;html=1;textDirection=vertical-lr;horizontal=1;align=center;" vertex="1" parent="1">
          <mxGeometry x="290" y="540" width="20" height="120" as="geometry" />
        </mxCell>
        <mxCell id="-tVbdQUFw9orbpe_zKfA-8" value="个人中心" style="rounded=0;whiteSpace=wrap;html=1;textDirection=vertical-lr;horizontal=1;" vertex="1" parent="1">
          <mxGeometry x="380" y="540" width="20" height="120" as="geometry" />
        </mxCell>
        <mxCell id="-tVbdQUFw9orbpe_zKfA-9" value="设置" style="rounded=0;whiteSpace=wrap;html=1;textDirection=vertical-lr;horizontal=1;" vertex="1" parent="1">
          <mxGeometry x="350" y="540" width="20" height="120" as="geometry" />
        </mxCell>
        <mxCell id="-tVbdQUFw9orbpe_zKfA-10" value="我的项目" style="rounded=0;whiteSpace=wrap;html=1;textDirection=vertical-lr;horizontal=1;" vertex="1" parent="1">
          <mxGeometry x="320" y="540" width="20" height="120" as="geometry" />
        </mxCell>
        <mxCell id="-tVbdQUFw9orbpe_zKfA-11" value="模块管理" style="rounded=0;whiteSpace=wrap;html=1;textDirection=vertical-lr;horizontal=1;" vertex="1" parent="1">
          <mxGeometry x="410" y="540" width="20" height="120" as="geometry" />
        </mxCell>
        <mxCell id="-tVbdQUFw9orbpe_zKfA-17" value="" style="endArrow=none;html=1;rounded=0;strokeWidth=2;" edge="1" parent="1">
          <mxGeometry width="50" height="50" relative="1" as="geometry">
            <mxPoint x="359.71000000000004" y="520" as="sourcePoint" />
            <mxPoint x="359.71000000000004" y="500" as="targetPoint" />
          </mxGeometry>
        </mxCell>
        <mxCell id="-tVbdQUFw9orbpe_zKfA-19" value="" style="endArrow=none;html=1;rounded=0;strokeWidth=2;" edge="1" parent="1">
          <mxGeometry width="50" height="50" relative="1" as="geometry">
            <mxPoint x="300" y="520" as="sourcePoint" />
            <mxPoint x="420" y="520" as="targetPoint" />
          </mxGeometry>
        </mxCell>
        <mxCell id="-tVbdQUFw9orbpe_zKfA-27" value="" style="endArrow=blockThin;html=1;rounded=0;strokeWidth=2;endSize=5;endFill=1;" edge="1" parent="1">
          <mxGeometry width="50" height="50" relative="1" as="geometry">
            <mxPoint x="300" y="520" as="sourcePoint" />
            <mxPoint x="300.17" y="540" as="targetPoint" />
          </mxGeometry>
        </mxCell>
        <mxCell id="-tVbdQUFw9orbpe_zKfA-29" value="" style="endArrow=blockThin;html=1;rounded=0;strokeWidth=2;endSize=5;endFill=1;" edge="1" parent="1">
          <mxGeometry width="50" height="50" relative="1" as="geometry">
            <mxPoint x="329.86" y="520" as="sourcePoint" />
            <mxPoint x="330.03000000000003" y="540" as="targetPoint" />
          </mxGeometry>
        </mxCell>
        <mxCell id="-tVbdQUFw9orbpe_zKfA-30" value="" style="endArrow=blockThin;html=1;rounded=0;strokeWidth=2;endSize=5;endFill=1;" edge="1" parent="1">
          <mxGeometry width="50" height="50" relative="1" as="geometry">
            <mxPoint x="359.86" y="520" as="sourcePoint" />
            <mxPoint x="360.03000000000003" y="540" as="targetPoint" />
          </mxGeometry>
        </mxCell>
        <mxCell id="-tVbdQUFw9orbpe_zKfA-31" value="" style="endArrow=blockThin;html=1;rounded=0;strokeWidth=2;endSize=5;endFill=1;" edge="1" parent="1">
          <mxGeometry width="50" height="50" relative="1" as="geometry">
            <mxPoint x="389.86" y="520" as="sourcePoint" />
            <mxPoint x="390.03000000000003" y="540" as="targetPoint" />
          </mxGeometry>
        </mxCell>
        <mxCell id="-tVbdQUFw9orbpe_zKfA-32" value="" style="endArrow=blockThin;html=1;rounded=0;strokeWidth=2;endSize=5;endFill=1;" edge="1" parent="1">
          <mxGeometry width="50" height="50" relative="1" as="geometry">
            <mxPoint x="419.86" y="520" as="sourcePoint" />
            <mxPoint x="420.03000000000003" y="540" as="targetPoint" />
          </mxGeometry>
        </mxCell>
      </root>
    </mxGraphModel>
  </diagram>
  <diagram id="j876Q8XC2aN681RGombD" name="第 2 页">
    <mxGraphModel dx="1219" dy="901" grid="0" gridSize="10" guides="1" tooltips="1" connect="1" arrows="1" fold="1" page="0" pageScale="1" pageWidth="827" pageHeight="1169" math="0" shadow="0">
      <root>
        <mxCell id="0" />
        <mxCell id="1" parent="0" />
        <mxCell id="xqwsQGAKFiCfMi1y0ZWx-2" value="登录功能" style="rounded=0;whiteSpace=wrap;html=1;textDirection=vertical-lr;horizontal=1;align=center;" vertex="1" parent="1">
          <mxGeometry x="-100" y="130" width="20" height="110" as="geometry" />
        </mxCell>
        <mxCell id="xqwsQGAKFiCfMi1y0ZWx-4" value="退出登录功能" style="rounded=0;whiteSpace=wrap;html=1;textDirection=vertical-lr;horizontal=1;" vertex="1" parent="1">
          <mxGeometry x="20" y="130" width="20" height="110" as="geometry" />
        </mxCell>
        <mxCell id="xqwsQGAKFiCfMi1y0ZWx-7" value="" style="endArrow=none;html=1;rounded=0;strokeWidth=2;" edge="1" parent="1">
          <mxGeometry width="50" height="50" relative="1" as="geometry">
            <mxPoint x="300.00000000000006" y="40" as="sourcePoint" />
            <mxPoint x="300.00000000000006" y="20" as="targetPoint" />
          </mxGeometry>
        </mxCell>
        <mxCell id="xqwsQGAKFiCfMi1y0ZWx-8" value="" style="endArrow=none;html=1;rounded=0;strokeWidth=2;" edge="1" parent="1">
          <mxGeometry width="50" height="50" relative="1" as="geometry">
            <mxPoint x="-30" y="40" as="sourcePoint" />
            <mxPoint x="570" y="40" as="targetPoint" />
          </mxGeometry>
        </mxCell>
        <mxCell id="xqwsQGAKFiCfMi1y0ZWx-9" value="" style="endArrow=blockThin;html=1;rounded=0;strokeWidth=2;endSize=5;endFill=1;" edge="1" parent="1">
          <mxGeometry width="50" height="50" relative="1" as="geometry">
            <mxPoint x="-30.32" y="40" as="sourcePoint" />
            <mxPoint x="-30.149999999999984" y="60" as="targetPoint" />
          </mxGeometry>
        </mxCell>
        <mxCell id="xqwsQGAKFiCfMi1y0ZWx-10" value="" style="endArrow=blockThin;html=1;rounded=0;strokeWidth=2;endSize=5;endFill=1;" edge="1" parent="1">
          <mxGeometry width="50" height="50" relative="1" as="geometry">
            <mxPoint x="149.68" y="40" as="sourcePoint" />
            <mxPoint x="149.85000000000002" y="60" as="targetPoint" />
          </mxGeometry>
        </mxCell>
        <mxCell id="xqwsQGAKFiCfMi1y0ZWx-13" value="" style="endArrow=blockThin;html=1;rounded=0;strokeWidth=2;endSize=5;endFill=1;" edge="1" parent="1">
          <mxGeometry width="50" height="50" relative="1" as="geometry">
            <mxPoint x="329.73" y="40" as="sourcePoint" />
            <mxPoint x="329.90000000000003" y="60" as="targetPoint" />
          </mxGeometry>
        </mxCell>
        <mxCell id="xqwsQGAKFiCfMi1y0ZWx-14" value="小场景三维地理信息系统" style="rounded=0;whiteSpace=wrap;html=1;" vertex="1" parent="1">
          <mxGeometry x="212" y="-10" width="192" height="30" as="geometry" />
        </mxCell>
        <mxCell id="xqwsQGAKFiCfMi1y0ZWx-15" value="用户管理模块" style="rounded=0;whiteSpace=wrap;html=1;" vertex="1" parent="1">
          <mxGeometry x="-80" y="60" width="100" height="30" as="geometry" />
        </mxCell>
        <mxCell id="xqwsQGAKFiCfMi1y0ZWx-16" value="项目管理模块" style="rounded=0;whiteSpace=wrap;html=1;" vertex="1" parent="1">
          <mxGeometry x="100" y="60" width="100" height="30" as="geometry" />
        </mxCell>
        <mxCell id="xqwsQGAKFiCfMi1y0ZWx-17" value="" style="endArrow=blockThin;html=1;rounded=0;strokeWidth=2;endSize=5;endFill=1;" edge="1" parent="1">
          <mxGeometry width="50" height="50" relative="1" as="geometry">
            <mxPoint x="569.73" y="40" as="sourcePoint" />
            <mxPoint x="569.9" y="60" as="targetPoint" />
          </mxGeometry>
        </mxCell>
        <mxCell id="xqwsQGAKFiCfMi1y0ZWx-18" value="模型管理模块" style="rounded=0;whiteSpace=wrap;html=1;" vertex="1" parent="1">
          <mxGeometry x="280" y="60" width="100" height="30" as="geometry" />
        </mxCell>
        <mxCell id="xqwsQGAKFiCfMi1y0ZWx-19" value="项目编辑模块" style="rounded=0;whiteSpace=wrap;html=1;" vertex="1" parent="1">
          <mxGeometry x="520" y="60" width="100" height="30" as="geometry" />
        </mxCell>
        <mxCell id="xqwsQGAKFiCfMi1y0ZWx-20" value="" style="endArrow=none;html=1;rounded=0;strokeWidth=2;" edge="1" parent="1">
          <mxGeometry width="50" height="50" relative="1" as="geometry">
            <mxPoint x="-29.99999999999997" y="110" as="sourcePoint" />
            <mxPoint x="-29.99999999999997" y="90" as="targetPoint" />
          </mxGeometry>
        </mxCell>
        <mxCell id="xqwsQGAKFiCfMi1y0ZWx-21" value="" style="endArrow=none;html=1;rounded=0;strokeWidth=2;" edge="1" parent="1">
          <mxGeometry width="50" height="50" relative="1" as="geometry">
            <mxPoint x="-90" y="110" as="sourcePoint" />
            <mxPoint x="30" y="110" as="targetPoint" />
          </mxGeometry>
        </mxCell>
        <mxCell id="xqwsQGAKFiCfMi1y0ZWx-22" value="注册功能" style="rounded=0;whiteSpace=wrap;html=1;textDirection=vertical-lr;horizontal=1;align=center;" vertex="1" parent="1">
          <mxGeometry x="-60" y="130" width="20" height="110" as="geometry" />
        </mxCell>
        <mxCell id="xqwsQGAKFiCfMi1y0ZWx-23" value="个人信息详情" style="rounded=0;whiteSpace=wrap;html=1;textDirection=vertical-lr;horizontal=1;align=center;" vertex="1" parent="1">
          <mxGeometry x="-20" y="130" width="20" height="110" as="geometry" />
        </mxCell>
        <mxCell id="xqwsQGAKFiCfMi1y0ZWx-24" value="" style="endArrow=blockThin;html=1;rounded=0;strokeWidth=2;endSize=5;endFill=1;" edge="1" parent="1">
          <mxGeometry width="50" height="50" relative="1" as="geometry">
            <mxPoint x="-90.32" y="110" as="sourcePoint" />
            <mxPoint x="-90.14999999999998" y="130" as="targetPoint" />
          </mxGeometry>
        </mxCell>
        <mxCell id="xqwsQGAKFiCfMi1y0ZWx-25" value="" style="endArrow=blockThin;html=1;rounded=0;strokeWidth=2;endSize=5;endFill=1;" edge="1" parent="1">
          <mxGeometry width="50" height="50" relative="1" as="geometry">
            <mxPoint x="-50.31999999999999" y="110" as="sourcePoint" />
            <mxPoint x="-50.14999999999998" y="130" as="targetPoint" />
          </mxGeometry>
        </mxCell>
        <mxCell id="xqwsQGAKFiCfMi1y0ZWx-27" value="" style="endArrow=blockThin;html=1;rounded=0;strokeWidth=2;endSize=5;endFill=1;" edge="1" parent="1">
          <mxGeometry width="50" height="50" relative="1" as="geometry">
            <mxPoint x="-10.159999999999997" y="110" as="sourcePoint" />
            <mxPoint x="-9.98999999999998" y="130" as="targetPoint" />
          </mxGeometry>
        </mxCell>
        <mxCell id="xqwsQGAKFiCfMi1y0ZWx-28" value="" style="endArrow=blockThin;html=1;rounded=0;strokeWidth=2;endSize=5;endFill=1;" edge="1" parent="1">
          <mxGeometry width="50" height="50" relative="1" as="geometry">
            <mxPoint x="29.840000000000003" y="110" as="sourcePoint" />
            <mxPoint x="30.01000000000002" y="130" as="targetPoint" />
          </mxGeometry>
        </mxCell>
        <mxCell id="xqwsQGAKFiCfMi1y0ZWx-29" value="" style="endArrow=none;html=1;rounded=0;strokeWidth=2;" edge="1" parent="1">
          <mxGeometry width="50" height="50" relative="1" as="geometry">
            <mxPoint x="329.88" y="110" as="sourcePoint" />
            <mxPoint x="329.88" y="90" as="targetPoint" />
          </mxGeometry>
        </mxCell>
        <mxCell id="xqwsQGAKFiCfMi1y0ZWx-30" value="" style="endArrow=none;html=1;rounded=0;strokeWidth=2;" edge="1" parent="1">
          <mxGeometry width="50" height="50" relative="1" as="geometry">
            <mxPoint x="269.88" y="110" as="sourcePoint" />
            <mxPoint x="389.88" y="110" as="targetPoint" />
          </mxGeometry>
        </mxCell>
        <mxCell id="xqwsQGAKFiCfMi1y0ZWx-31" value="" style="endArrow=blockThin;html=1;rounded=0;strokeWidth=2;endSize=5;endFill=1;" edge="1" parent="1">
          <mxGeometry width="50" height="50" relative="1" as="geometry">
            <mxPoint x="269.56" y="110" as="sourcePoint" />
            <mxPoint x="269.73" y="130" as="targetPoint" />
          </mxGeometry>
        </mxCell>
        <mxCell id="xqwsQGAKFiCfMi1y0ZWx-32" value="" style="endArrow=blockThin;html=1;rounded=0;strokeWidth=2;endSize=5;endFill=1;" edge="1" parent="1">
          <mxGeometry width="50" height="50" relative="1" as="geometry">
            <mxPoint x="309.56" y="110" as="sourcePoint" />
            <mxPoint x="309.73" y="130" as="targetPoint" />
          </mxGeometry>
        </mxCell>
        <mxCell id="xqwsQGAKFiCfMi1y0ZWx-33" value="" style="endArrow=blockThin;html=1;rounded=0;strokeWidth=2;endSize=5;endFill=1;" edge="1" parent="1">
          <mxGeometry width="50" height="50" relative="1" as="geometry">
            <mxPoint x="349.72" y="110" as="sourcePoint" />
            <mxPoint x="349.89" y="130" as="targetPoint" />
          </mxGeometry>
        </mxCell>
        <mxCell id="xqwsQGAKFiCfMi1y0ZWx-34" value="" style="endArrow=blockThin;html=1;rounded=0;strokeWidth=2;endSize=5;endFill=1;" edge="1" parent="1">
          <mxGeometry width="50" height="50" relative="1" as="geometry">
            <mxPoint x="389.72" y="110" as="sourcePoint" />
            <mxPoint x="389.89" y="130" as="targetPoint" />
          </mxGeometry>
        </mxCell>
        <mxCell id="xqwsQGAKFiCfMi1y0ZWx-35" value="模型创建功能" style="rounded=0;whiteSpace=wrap;html=1;textDirection=vertical-lr;horizontal=1;" vertex="1" parent="1">
          <mxGeometry x="260" y="130" width="20" height="110" as="geometry" />
        </mxCell>
        <mxCell id="xqwsQGAKFiCfMi1y0ZWx-36" value="详情查看功能" style="rounded=0;whiteSpace=wrap;html=1;textDirection=vertical-lr;horizontal=1;" vertex="1" parent="1">
          <mxGeometry x="300" y="130" width="20" height="110" as="geometry" />
        </mxCell>
        <mxCell id="xqwsQGAKFiCfMi1y0ZWx-37" value="模型预览功能" style="rounded=0;whiteSpace=wrap;html=1;textDirection=vertical-lr;horizontal=1;" vertex="1" parent="1">
          <mxGeometry x="340" y="130" width="20" height="110" as="geometry" />
        </mxCell>
        <mxCell id="xqwsQGAKFiCfMi1y0ZWx-38" value="模型删除功能" style="rounded=0;whiteSpace=wrap;html=1;textDirection=vertical-lr;horizontal=1;" vertex="1" parent="1">
          <mxGeometry x="380" y="130" width="20" height="110" as="geometry" />
        </mxCell>
        <mxCell id="xqwsQGAKFiCfMi1y0ZWx-49" value="" style="endArrow=none;html=1;rounded=0;strokeWidth=2;" edge="1" parent="1">
          <mxGeometry width="50" height="50" relative="1" as="geometry">
            <mxPoint x="149.88" y="110" as="sourcePoint" />
            <mxPoint x="149.88" y="90" as="targetPoint" />
          </mxGeometry>
        </mxCell>
        <mxCell id="xqwsQGAKFiCfMi1y0ZWx-50" value="" style="endArrow=none;html=1;rounded=0;strokeWidth=2;" edge="1" parent="1">
          <mxGeometry width="50" height="50" relative="1" as="geometry">
            <mxPoint x="89.88" y="110" as="sourcePoint" />
            <mxPoint x="209.88" y="110" as="targetPoint" />
          </mxGeometry>
        </mxCell>
        <mxCell id="xqwsQGAKFiCfMi1y0ZWx-51" value="" style="endArrow=blockThin;html=1;rounded=0;strokeWidth=2;endSize=5;endFill=1;" edge="1" parent="1">
          <mxGeometry width="50" height="50" relative="1" as="geometry">
            <mxPoint x="89.56" y="110" as="sourcePoint" />
            <mxPoint x="89.73000000000002" y="130" as="targetPoint" />
          </mxGeometry>
        </mxCell>
        <mxCell id="xqwsQGAKFiCfMi1y0ZWx-52" value="" style="endArrow=blockThin;html=1;rounded=0;strokeWidth=2;endSize=5;endFill=1;" edge="1" parent="1">
          <mxGeometry width="50" height="50" relative="1" as="geometry">
            <mxPoint x="129.56" y="110" as="sourcePoint" />
            <mxPoint x="129.73000000000002" y="130" as="targetPoint" />
          </mxGeometry>
        </mxCell>
        <mxCell id="xqwsQGAKFiCfMi1y0ZWx-53" value="" style="endArrow=blockThin;html=1;rounded=0;strokeWidth=2;endSize=5;endFill=1;" edge="1" parent="1">
          <mxGeometry width="50" height="50" relative="1" as="geometry">
            <mxPoint x="169.72000000000003" y="110" as="sourcePoint" />
            <mxPoint x="169.89" y="130" as="targetPoint" />
          </mxGeometry>
        </mxCell>
        <mxCell id="xqwsQGAKFiCfMi1y0ZWx-54" value="" style="endArrow=blockThin;html=1;rounded=0;strokeWidth=2;endSize=5;endFill=1;" edge="1" parent="1">
          <mxGeometry width="50" height="50" relative="1" as="geometry">
            <mxPoint x="209.72000000000003" y="110" as="sourcePoint" />
            <mxPoint x="209.89" y="130" as="targetPoint" />
          </mxGeometry>
        </mxCell>
        <mxCell id="xqwsQGAKFiCfMi1y0ZWx-55" value="项目创建功能" style="rounded=0;whiteSpace=wrap;html=1;textDirection=vertical-lr;horizontal=1;" vertex="1" parent="1">
          <mxGeometry x="80" y="130" width="20" height="110" as="geometry" />
        </mxCell>
        <mxCell id="xqwsQGAKFiCfMi1y0ZWx-56" value="项目重命名功能" style="rounded=0;whiteSpace=wrap;html=1;textDirection=vertical-lr;horizontal=1;" vertex="1" parent="1">
          <mxGeometry x="120" y="130" width="20" height="110" as="geometry" />
        </mxCell>
        <mxCell id="xqwsQGAKFiCfMi1y0ZWx-57" value="详情查看功能" style="rounded=0;whiteSpace=wrap;html=1;textDirection=vertical-lr;horizontal=1;" vertex="1" parent="1">
          <mxGeometry x="160" y="130" width="20" height="110" as="geometry" />
        </mxCell>
        <mxCell id="xqwsQGAKFiCfMi1y0ZWx-58" value="项目删除功能" style="rounded=0;whiteSpace=wrap;html=1;textDirection=vertical-lr;horizontal=1;" vertex="1" parent="1">
          <mxGeometry x="200" y="130" width="20" height="110" as="geometry" />
        </mxCell>
        <mxCell id="xqwsQGAKFiCfMi1y0ZWx-59" value="" style="endArrow=none;html=1;rounded=0;strokeWidth=2;" edge="1" parent="1">
          <mxGeometry width="50" height="50" relative="1" as="geometry">
            <mxPoint x="569.71" y="110" as="sourcePoint" />
            <mxPoint x="569.71" y="90" as="targetPoint" />
          </mxGeometry>
        </mxCell>
        <mxCell id="xqwsQGAKFiCfMi1y0ZWx-60" value="" style="endArrow=none;html=1;rounded=0;strokeWidth=2;" edge="1" parent="1">
          <mxGeometry width="50" height="50" relative="1" as="geometry">
            <mxPoint x="449.88" y="110" as="sourcePoint" />
            <mxPoint x="569.88" y="110" as="targetPoint" />
          </mxGeometry>
        </mxCell>
        <mxCell id="xqwsQGAKFiCfMi1y0ZWx-61" value="" style="endArrow=blockThin;html=1;rounded=0;strokeWidth=2;endSize=5;endFill=1;" edge="1" parent="1">
          <mxGeometry width="50" height="50" relative="1" as="geometry">
            <mxPoint x="449.55999999999995" y="110" as="sourcePoint" />
            <mxPoint x="449.73" y="130" as="targetPoint" />
          </mxGeometry>
        </mxCell>
        <mxCell id="xqwsQGAKFiCfMi1y0ZWx-62" value="" style="endArrow=blockThin;html=1;rounded=0;strokeWidth=2;endSize=5;endFill=1;" edge="1" parent="1">
          <mxGeometry width="50" height="50" relative="1" as="geometry">
            <mxPoint x="489.55999999999995" y="110" as="sourcePoint" />
            <mxPoint x="489.73" y="130" as="targetPoint" />
          </mxGeometry>
        </mxCell>
        <mxCell id="xqwsQGAKFiCfMi1y0ZWx-63" value="" style="endArrow=blockThin;html=1;rounded=0;strokeWidth=2;endSize=5;endFill=1;" edge="1" parent="1">
          <mxGeometry width="50" height="50" relative="1" as="geometry">
            <mxPoint x="529.72" y="110" as="sourcePoint" />
            <mxPoint x="529.89" y="130" as="targetPoint" />
          </mxGeometry>
        </mxCell>
        <mxCell id="xqwsQGAKFiCfMi1y0ZWx-64" value="" style="endArrow=blockThin;html=1;rounded=0;strokeWidth=2;endSize=5;endFill=1;" edge="1" parent="1">
          <mxGeometry width="50" height="50" relative="1" as="geometry">
            <mxPoint x="569.72" y="110" as="sourcePoint" />
            <mxPoint x="569.89" y="130" as="targetPoint" />
          </mxGeometry>
        </mxCell>
        <mxCell id="xqwsQGAKFiCfMi1y0ZWx-65" value="场景浏览" style="rounded=0;whiteSpace=wrap;html=1;textDirection=vertical-lr;horizontal=1;" vertex="1" parent="1">
          <mxGeometry x="440" y="130" width="20" height="110" as="geometry" />
        </mxCell>
        <mxCell id="xqwsQGAKFiCfMi1y0ZWx-66" value="场景基础配置" style="rounded=0;whiteSpace=wrap;html=1;textDirection=vertical-lr;horizontal=1;" vertex="1" parent="1">
          <mxGeometry x="480" y="130" width="20" height="110" as="geometry" />
        </mxCell>
        <mxCell id="xqwsQGAKFiCfMi1y0ZWx-67" value="模型导入" style="rounded=0;whiteSpace=wrap;html=1;textDirection=vertical-lr;horizontal=1;" vertex="1" parent="1">
          <mxGeometry x="520" y="130" width="20" height="110" as="geometry" />
        </mxCell>
        <mxCell id="xqwsQGAKFiCfMi1y0ZWx-68" value="目标空间定位" style="rounded=0;whiteSpace=wrap;html=1;textDirection=vertical-lr;horizontal=1;" vertex="1" parent="1">
          <mxGeometry x="560" y="130" width="20" height="110" as="geometry" />
        </mxCell>
        <mxCell id="xqwsQGAKFiCfMi1y0ZWx-69" value="模型属性查询" style="rounded=0;whiteSpace=wrap;html=1;textDirection=vertical-lr;horizontal=1;" vertex="1" parent="1">
          <mxGeometry x="600" y="130" width="20" height="110" as="geometry" />
        </mxCell>
        <mxCell id="xqwsQGAKFiCfMi1y0ZWx-70" value="模型属性配置" style="rounded=0;whiteSpace=wrap;html=1;textDirection=vertical-lr;horizontal=1;" vertex="1" parent="1">
          <mxGeometry x="640" y="130" width="20" height="110" as="geometry" />
        </mxCell>
        <mxCell id="xqwsQGAKFiCfMi1y0ZWx-71" value="场景漫游" style="rounded=0;whiteSpace=wrap;html=1;textDirection=vertical-lr;horizontal=1;" vertex="1" parent="1">
          <mxGeometry x="680" y="130" width="20" height="110" as="geometry" />
        </mxCell>
        <mxCell id="xqwsQGAKFiCfMi1y0ZWx-72" value="" style="endArrow=none;html=1;rounded=0;strokeWidth=2;" edge="1" parent="1">
          <mxGeometry width="50" height="50" relative="1" as="geometry">
            <mxPoint x="449.88" y="110" as="sourcePoint" />
            <mxPoint x="690" y="110" as="targetPoint" />
          </mxGeometry>
        </mxCell>
        <mxCell id="xqwsQGAKFiCfMi1y0ZWx-73" value="" style="endArrow=blockThin;html=1;rounded=0;strokeWidth=2;endSize=5;endFill=1;" edge="1" parent="1">
          <mxGeometry width="50" height="50" relative="1" as="geometry">
            <mxPoint x="609.71" y="110" as="sourcePoint" />
            <mxPoint x="609.88" y="130" as="targetPoint" />
          </mxGeometry>
        </mxCell>
        <mxCell id="xqwsQGAKFiCfMi1y0ZWx-74" value="" style="endArrow=blockThin;html=1;rounded=0;strokeWidth=2;endSize=5;endFill=1;" edge="1" parent="1">
          <mxGeometry width="50" height="50" relative="1" as="geometry">
            <mxPoint x="649.83" y="110" as="sourcePoint" />
            <mxPoint x="650" y="130" as="targetPoint" />
          </mxGeometry>
        </mxCell>
        <mxCell id="xqwsQGAKFiCfMi1y0ZWx-75" value="" style="endArrow=blockThin;html=1;rounded=0;strokeWidth=2;endSize=5;endFill=1;" edge="1" parent="1">
          <mxGeometry width="50" height="50" relative="1" as="geometry">
            <mxPoint x="689.83" y="110" as="sourcePoint" />
            <mxPoint x="690" y="130" as="targetPoint" />
          </mxGeometry>
        </mxCell>
      </root>
    </mxGraphModel>
  </diagram>
  <diagram id="gZACIHSNPSFKkkmNLnfh" name="第 3 页">
    <mxGraphModel dx="648" dy="797" grid="0" gridSize="10" guides="1" tooltips="1" connect="1" arrows="1" fold="1" page="0" pageScale="1" pageWidth="827" pageHeight="1169" math="0" shadow="0">
      <root>
        <mxCell id="0" />
        <mxCell id="1" parent="0" />
        <mxCell id="yIPCoJXNd5IEmDGRkdfI-1" value="ID" style="ellipse;whiteSpace=wrap;html=1;gradientColor=none;fontSize=16;" vertex="1" parent="1">
          <mxGeometry x="15" y="250" width="110" height="55" as="geometry" />
        </mxCell>
        <mxCell id="yIPCoJXNd5IEmDGRkdfI-2" value="&lt;font&gt;用户&lt;/font&gt;" style="rounded=0;whiteSpace=wrap;html=1;fontSize=16;" vertex="1" parent="1">
          <mxGeometry x="95" y="330" width="120" height="40" as="geometry" />
        </mxCell>
        <mxCell id="yIPCoJXNd5IEmDGRkdfI-3" value="用户名" style="ellipse;whiteSpace=wrap;html=1;gradientColor=none;fontSize=16;" vertex="1" parent="1">
          <mxGeometry x="195" y="250" width="110" height="55" as="geometry" />
        </mxCell>
        <mxCell id="yIPCoJXNd5IEmDGRkdfI-4" value="密码" style="ellipse;whiteSpace=wrap;html=1;gradientColor=none;fontSize=16;" vertex="1" parent="1">
          <mxGeometry x="100" y="400" width="110" height="55" as="geometry" />
        </mxCell>
        <mxCell id="yIPCoJXNd5IEmDGRkdfI-6" value="" style="endArrow=none;html=1;rounded=0;entryX=0.5;entryY=1;entryDx=0;entryDy=0;" edge="1" parent="1" target="yIPCoJXNd5IEmDGRkdfI-3">
          <mxGeometry width="50" height="50" relative="1" as="geometry">
            <mxPoint x="155" y="330" as="sourcePoint" />
            <mxPoint x="205" y="280" as="targetPoint" />
          </mxGeometry>
        </mxCell>
        <mxCell id="yIPCoJXNd5IEmDGRkdfI-7" value="" style="endArrow=none;html=1;rounded=0;exitX=0.5;exitY=1;exitDx=0;exitDy=0;" edge="1" parent="1" source="yIPCoJXNd5IEmDGRkdfI-1">
          <mxGeometry width="50" height="50" relative="1" as="geometry">
            <mxPoint x="65" y="355" as="sourcePoint" />
            <mxPoint x="152" y="330" as="targetPoint" />
          </mxGeometry>
        </mxCell>
        <mxCell id="yIPCoJXNd5IEmDGRkdfI-8" value="" style="endArrow=none;html=1;rounded=0;entryX=0.5;entryY=1;entryDx=0;entryDy=0;" edge="1" parent="1">
          <mxGeometry width="50" height="50" relative="1" as="geometry">
            <mxPoint x="154.67" y="400" as="sourcePoint" />
            <mxPoint x="154.67" y="370" as="targetPoint" />
          </mxGeometry>
        </mxCell>
        <mxCell id="yIPCoJXNd5IEmDGRkdfI-10" value="标题" style="ellipse;whiteSpace=wrap;html=1;gradientColor=none;fontSize=16;" vertex="1" parent="1">
          <mxGeometry x="390" y="250" width="110" height="55" as="geometry" />
        </mxCell>
        <mxCell id="yIPCoJXNd5IEmDGRkdfI-11" value="项目" style="rounded=0;whiteSpace=wrap;html=1;fontSize=16;" vertex="1" parent="1">
          <mxGeometry x="650" y="340" width="120" height="40" as="geometry" />
        </mxCell>
        <mxCell id="yIPCoJXNd5IEmDGRkdfI-12" value="基本配置" style="ellipse;whiteSpace=wrap;html=1;gradientColor=none;fontSize=16;" vertex="1" parent="1">
          <mxGeometry x="910" y="250" width="110" height="55" as="geometry" />
        </mxCell>
        <mxCell id="yIPCoJXNd5IEmDGRkdfI-13" value="预览图url" style="ellipse;whiteSpace=wrap;html=1;gradientColor=none;fontSize=16;" vertex="1" parent="1">
          <mxGeometry x="780" y="410" width="110" height="55" as="geometry" />
        </mxCell>
        <mxCell id="yIPCoJXNd5IEmDGRkdfI-14" value="" style="endArrow=none;html=1;rounded=0;entryX=0.5;entryY=1;entryDx=0;entryDy=0;" edge="1" parent="1" target="yIPCoJXNd5IEmDGRkdfI-12">
          <mxGeometry width="50" height="50" relative="1" as="geometry">
            <mxPoint x="710" y="340" as="sourcePoint" />
            <mxPoint x="760" y="290" as="targetPoint" />
          </mxGeometry>
        </mxCell>
        <mxCell id="yIPCoJXNd5IEmDGRkdfI-15" value="" style="endArrow=none;html=1;rounded=0;exitX=0.5;exitY=1;exitDx=0;exitDy=0;" edge="1" parent="1" source="yIPCoJXNd5IEmDGRkdfI-10">
          <mxGeometry width="50" height="50" relative="1" as="geometry">
            <mxPoint x="620" y="365" as="sourcePoint" />
            <mxPoint x="707" y="340" as="targetPoint" />
          </mxGeometry>
        </mxCell>
        <mxCell id="yIPCoJXNd5IEmDGRkdfI-16" value="" style="endArrow=none;html=1;rounded=0;entryX=0.5;entryY=1;entryDx=0;entryDy=0;exitX=0.5;exitY=0;exitDx=0;exitDy=0;" edge="1" parent="1" source="yIPCoJXNd5IEmDGRkdfI-13">
          <mxGeometry width="50" height="50" relative="1" as="geometry">
            <mxPoint x="709.67" y="410" as="sourcePoint" />
            <mxPoint x="709.67" y="380" as="targetPoint" />
          </mxGeometry>
        </mxCell>
        <mxCell id="yIPCoJXNd5IEmDGRkdfI-17" value="项目原点" style="ellipse;whiteSpace=wrap;html=1;gradientColor=none;fontSize=16;" vertex="1" parent="1">
          <mxGeometry x="520" y="250" width="110" height="55" as="geometry" />
        </mxCell>
        <mxCell id="yIPCoJXNd5IEmDGRkdfI-18" value="" style="endArrow=none;html=1;rounded=0;entryX=0.5;entryY=1;entryDx=0;entryDy=0;" edge="1" target="yIPCoJXNd5IEmDGRkdfI-17" parent="1">
          <mxGeometry width="50" height="50" relative="1" as="geometry">
            <mxPoint x="710" y="340" as="sourcePoint" />
            <mxPoint x="640" y="220" as="targetPoint" />
          </mxGeometry>
        </mxCell>
        <mxCell id="yIPCoJXNd5IEmDGRkdfI-19" value="模型配置" style="ellipse;whiteSpace=wrap;html=1;gradientColor=none;fontSize=16;" vertex="1" parent="1">
          <mxGeometry x="780" y="250" width="110" height="55" as="geometry" />
        </mxCell>
        <mxCell id="yIPCoJXNd5IEmDGRkdfI-20" value="" style="endArrow=none;html=1;rounded=0;entryX=0.5;entryY=1;entryDx=0;entryDy=0;" edge="1" parent="1" target="yIPCoJXNd5IEmDGRkdfI-19">
          <mxGeometry width="50" height="50" relative="1" as="geometry">
            <mxPoint x="710" y="340" as="sourcePoint" />
            <mxPoint x="770" y="180" as="targetPoint" />
          </mxGeometry>
        </mxCell>
        <mxCell id="yIPCoJXNd5IEmDGRkdfI-21" value="ID" style="ellipse;whiteSpace=wrap;html=1;gradientColor=none;fontSize=16;" vertex="1" parent="1">
          <mxGeometry x="655" y="250" width="110" height="55" as="geometry" />
        </mxCell>
        <mxCell id="yIPCoJXNd5IEmDGRkdfI-22" value="" style="endArrow=none;html=1;rounded=0;entryX=0.5;entryY=1;entryDx=0;entryDy=0;exitX=0.5;exitY=0;exitDx=0;exitDy=0;" edge="1" parent="1" target="yIPCoJXNd5IEmDGRkdfI-21" source="yIPCoJXNd5IEmDGRkdfI-11">
          <mxGeometry width="50" height="50" relative="1" as="geometry">
            <mxPoint x="740" y="610" as="sourcePoint" />
            <mxPoint x="740" y="460" as="targetPoint" />
          </mxGeometry>
        </mxCell>
        <mxCell id="yIPCoJXNd5IEmDGRkdfI-23" value="创建时间" style="ellipse;whiteSpace=wrap;html=1;gradientColor=none;fontSize=16;" vertex="1" parent="1">
          <mxGeometry x="390" y="410" width="110" height="55" as="geometry" />
        </mxCell>
        <mxCell id="yIPCoJXNd5IEmDGRkdfI-24" value="" style="endArrow=none;html=1;rounded=0;exitX=0.5;exitY=0;exitDx=0;exitDy=0;" edge="1" parent="1" source="yIPCoJXNd5IEmDGRkdfI-23">
          <mxGeometry width="50" height="50" relative="1" as="geometry">
            <mxPoint x="544.67" y="410" as="sourcePoint" />
            <mxPoint x="710" y="380" as="targetPoint" />
          </mxGeometry>
        </mxCell>
        <mxCell id="yIPCoJXNd5IEmDGRkdfI-25" value="更新时间" style="ellipse;whiteSpace=wrap;html=1;gradientColor=none;fontSize=16;" vertex="1" parent="1">
          <mxGeometry x="520" y="410" width="110" height="55" as="geometry" />
        </mxCell>
        <mxCell id="yIPCoJXNd5IEmDGRkdfI-26" value="" style="endArrow=none;html=1;rounded=0;entryX=0.5;entryY=1;entryDx=0;entryDy=0;exitX=0.5;exitY=0;exitDx=0;exitDy=0;" edge="1" parent="1" source="yIPCoJXNd5IEmDGRkdfI-25" target="yIPCoJXNd5IEmDGRkdfI-11">
          <mxGeometry width="50" height="50" relative="1" as="geometry">
            <mxPoint x="599.67" y="470" as="sourcePoint" />
            <mxPoint x="599.67" y="440" as="targetPoint" />
          </mxGeometry>
        </mxCell>
        <mxCell id="yIPCoJXNd5IEmDGRkdfI-27" value="用户ID" style="ellipse;whiteSpace=wrap;html=1;gradientColor=none;fontSize=16;" vertex="1" parent="1">
          <mxGeometry x="910" y="410" width="110" height="55" as="geometry" />
        </mxCell>
        <mxCell id="yIPCoJXNd5IEmDGRkdfI-28" value="" style="endArrow=none;html=1;rounded=0;entryX=0.5;entryY=1;entryDx=0;entryDy=0;exitX=0.5;exitY=0;exitDx=0;exitDy=0;" edge="1" parent="1" source="yIPCoJXNd5IEmDGRkdfI-27" target="yIPCoJXNd5IEmDGRkdfI-11">
          <mxGeometry width="50" height="50" relative="1" as="geometry">
            <mxPoint x="954.67" y="420" as="sourcePoint" />
            <mxPoint x="954.67" y="390" as="targetPoint" />
          </mxGeometry>
        </mxCell>
        <mxCell id="7ZAHX9LKXLAUw7wglt4X-2" value="模型" style="rounded=0;whiteSpace=wrap;html=1;fontSize=16;" vertex="1" parent="1">
          <mxGeometry x="620" width="120" height="40" as="geometry" />
        </mxCell>
        <mxCell id="7ZAHX9LKXLAUw7wglt4X-4" value="预览图url" style="ellipse;whiteSpace=wrap;html=1;gradientColor=none;fontSize=16;" vertex="1" parent="1">
          <mxGeometry x="690" y="70" width="110" height="55" as="geometry" />
        </mxCell>
        <mxCell id="7ZAHX9LKXLAUw7wglt4X-7" value="" style="endArrow=none;html=1;rounded=0;entryX=0.5;entryY=1;entryDx=0;entryDy=0;exitX=0.5;exitY=0;exitDx=0;exitDy=0;" edge="1" source="7ZAHX9LKXLAUw7wglt4X-4" parent="1">
          <mxGeometry width="50" height="50" relative="1" as="geometry">
            <mxPoint x="679.67" y="70" as="sourcePoint" />
            <mxPoint x="679.67" y="40" as="targetPoint" />
          </mxGeometry>
        </mxCell>
        <mxCell id="7ZAHX9LKXLAUw7wglt4X-8" value="标题" style="ellipse;whiteSpace=wrap;html=1;gradientColor=none;fontSize=16;" vertex="1" parent="1">
          <mxGeometry x="420" y="-90" width="110" height="55" as="geometry" />
        </mxCell>
        <mxCell id="7ZAHX9LKXLAUw7wglt4X-9" value="" style="endArrow=none;html=1;rounded=0;entryX=0.5;entryY=1;entryDx=0;entryDy=0;" edge="1" target="7ZAHX9LKXLAUw7wglt4X-8" parent="1">
          <mxGeometry width="50" height="50" relative="1" as="geometry">
            <mxPoint x="680" as="sourcePoint" />
            <mxPoint x="610" y="-120" as="targetPoint" />
          </mxGeometry>
        </mxCell>
        <mxCell id="7ZAHX9LKXLAUw7wglt4X-10" value="模型配置" style="ellipse;whiteSpace=wrap;html=1;gradientColor=none;fontSize=16;" vertex="1" parent="1">
          <mxGeometry x="830" y="-90" width="110" height="55" as="geometry" />
        </mxCell>
        <mxCell id="7ZAHX9LKXLAUw7wglt4X-11" value="" style="endArrow=none;html=1;rounded=0;entryX=0.5;entryY=1;entryDx=0;entryDy=0;" edge="1" target="7ZAHX9LKXLAUw7wglt4X-10" parent="1">
          <mxGeometry width="50" height="50" relative="1" as="geometry">
            <mxPoint x="680" as="sourcePoint" />
            <mxPoint x="740" y="-160" as="targetPoint" />
          </mxGeometry>
        </mxCell>
        <mxCell id="7ZAHX9LKXLAUw7wglt4X-12" value="ID" style="ellipse;whiteSpace=wrap;html=1;gradientColor=none;fontSize=16;" vertex="1" parent="1">
          <mxGeometry x="625" y="-90" width="110" height="55" as="geometry" />
        </mxCell>
        <mxCell id="7ZAHX9LKXLAUw7wglt4X-13" value="" style="endArrow=none;html=1;rounded=0;entryX=0.5;entryY=1;entryDx=0;entryDy=0;exitX=0.5;exitY=0;exitDx=0;exitDy=0;" edge="1" source="7ZAHX9LKXLAUw7wglt4X-2" target="7ZAHX9LKXLAUw7wglt4X-12" parent="1">
          <mxGeometry width="50" height="50" relative="1" as="geometry">
            <mxPoint x="710" y="270" as="sourcePoint" />
            <mxPoint x="710" y="120" as="targetPoint" />
          </mxGeometry>
        </mxCell>
        <mxCell id="7ZAHX9LKXLAUw7wglt4X-14" value="创建时间" style="ellipse;whiteSpace=wrap;html=1;gradientColor=none;fontSize=16;" vertex="1" parent="1">
          <mxGeometry x="420" y="70" width="110" height="55" as="geometry" />
        </mxCell>
        <mxCell id="7ZAHX9LKXLAUw7wglt4X-15" value="" style="endArrow=none;html=1;rounded=0;exitX=0.5;exitY=0;exitDx=0;exitDy=0;" edge="1" source="7ZAHX9LKXLAUw7wglt4X-14" parent="1">
          <mxGeometry width="50" height="50" relative="1" as="geometry">
            <mxPoint x="514.67" y="70" as="sourcePoint" />
            <mxPoint x="680" y="40" as="targetPoint" />
          </mxGeometry>
        </mxCell>
        <mxCell id="7ZAHX9LKXLAUw7wglt4X-16" value="更新时间" style="ellipse;whiteSpace=wrap;html=1;gradientColor=none;fontSize=16;" vertex="1" parent="1">
          <mxGeometry x="560" y="70" width="110" height="55" as="geometry" />
        </mxCell>
        <mxCell id="7ZAHX9LKXLAUw7wglt4X-17" value="" style="endArrow=none;html=1;rounded=0;entryX=0.5;entryY=1;entryDx=0;entryDy=0;exitX=0.5;exitY=0;exitDx=0;exitDy=0;" edge="1" source="7ZAHX9LKXLAUw7wglt4X-16" target="7ZAHX9LKXLAUw7wglt4X-2" parent="1">
          <mxGeometry width="50" height="50" relative="1" as="geometry">
            <mxPoint x="569.67" y="130" as="sourcePoint" />
            <mxPoint x="569.67" y="100" as="targetPoint" />
          </mxGeometry>
        </mxCell>
        <mxCell id="7ZAHX9LKXLAUw7wglt4X-18" value="用户ID" style="ellipse;whiteSpace=wrap;html=1;gradientColor=none;fontSize=16;" vertex="1" parent="1">
          <mxGeometry x="830" y="70" width="110" height="55" as="geometry" />
        </mxCell>
        <mxCell id="7ZAHX9LKXLAUw7wglt4X-19" value="" style="endArrow=none;html=1;rounded=0;entryX=0.5;entryY=1;entryDx=0;entryDy=0;exitX=0.5;exitY=0;exitDx=0;exitDy=0;" edge="1" source="7ZAHX9LKXLAUw7wglt4X-18" target="7ZAHX9LKXLAUw7wglt4X-2" parent="1">
          <mxGeometry width="50" height="50" relative="1" as="geometry">
            <mxPoint x="924.67" y="80" as="sourcePoint" />
            <mxPoint x="924.67" y="50" as="targetPoint" />
          </mxGeometry>
        </mxCell>
      </root>
    </mxGraphModel>
  </diagram>
  <diagram id="tuk-EKJB6qFpOSlc3FZ9" name="第 4 页">
    <mxGraphModel dx="778" dy="476" grid="0" gridSize="10" guides="1" tooltips="1" connect="1" arrows="1" fold="1" page="0" pageScale="1" pageWidth="827" pageHeight="1169" math="0" shadow="0">
      <root>
        <mxCell id="0" />
        <mxCell id="1" parent="0" />
      </root>
    </mxGraphModel>
  </diagram>
</mxfile>
